<svg version="1.1" xmlns="http://www.w3.org/2000/svg" xmlns:xlink="http://www.w3.org/1999/xlink" width="70" height="70" viewBox="0,0,70,70" odoo-icon:version="1.0" xmlns:odoo-icon="https://ivantodorovich.github.io/odoo-icon" odoo-icon:size="70" odoo-icon:icon-size="0.6" odoo-icon:icon-color="#FFFFFF" odoo-icon:icon-flat-shadow-angle="135" odoo-icon:background-color="#334984" odoo-icon:background-gradient="0.2" odoo-icon:box-radius="3.5" odoo-icon:odoo-version="14.0"><defs><linearGradient x1="70" y1="0" x2="0" y2="70" gradientUnits="userSpaceOnUse" id="color-1"><stop offset="0" stop-color="#667cb7"/><stop offset="1" stop-color="#334984"/></linearGradient></defs><g fill="none" fill-rule="nonzero" stroke="none" stroke-width="1" stroke-linecap="butt" stroke-linejoin="miter" stroke-miterlimit="10" stroke-dasharray="" stroke-dashoffset="0" font-family="none" font-weight="none" font-size="none" text-anchor="none" style="mix-blend-mode: normal"><path d="M3.5,70c-1.933,0 -3.5,-1.567 -3.5,-3.5v-63c0,-1.933 1.567,-3.5 3.5,-3.5h63c1.933,0 3.5,1.567 3.5,3.5v63c0,1.933 -1.567,3.5 -3.5,3.5z" id="box" fill="url(#color-1)"/><path d="M65,1h-61c-1.95033,0 -3.2667,0.63396 -3.9491,1.90189c0.28378,-1.64806 1.72001,-2.90189 3.4491,-2.90189h63c1.72965,0 3.16627,1.25466 3.44938,2.90352c-0.69803,-1.26902 -2.34782,-1.90352 -4.94938,-1.90352z" id="topBoxShadow" fill="#ffffff" opacity="0.383"/><path d="M4,69h61c2.66667,0 4.33333,-1 5,-3v0.5c0,1.933 -1.567,3.5 -3.5,3.5h-63c-1.933,0 -3.5,-1.567 -3.5,-3.5c0,-0.1611 0,-0.32777 0,-0.5c0.66667,2 2,3 4,3z" id="bottomBoxShadow" fill="#000000" opacity="0.383"/><path d="M14,22.30003h16.7999v-6.30003h4.19985v42h-4.19985v-8.4002h-8.4002v-6.30003h8.4002v-4.19985h-12.60005v-6.30003h12.60005v-4.19985h-16.7999v-6.30003M39.2001,22.30003h6.30003v6.30003h-6.30003v-6.30003M39.2001,32.8004h10.49987v6.30003h-10.49987v-6.30003M39.2001,43.30028h16.7999v6.30003h-16.7999z" id="shadow" fill="#000000" opacity="0.3"/><path d="M24.49987,20.30003l6.30003,-6.30003h4.19985v10.50038l4.20035,-4.20035h6.30003v6.30003l-4.20035,4.20035l8.4002,0v6.30003l-4.19985,4.19985h10.49987v6.30003l-22.3997,22.3997h-30.1003c-1.933,0 -3.5,-1.567 -3.5,-3.5l0,-32.19997l14,-14z" id="flatShadow" fill="#000000" opacity="0.324"/><path d="M14,20.30003h16.7999v-6.30003h4.19985v42h-4.19985v-8.4002h-8.4002v-6.30003h8.4002v-4.19985h-12.60005v-6.30003h12.60005v-4.19985h-16.7999v-6.30003M39.2001,20.30003h6.30003v6.30003h-6.30003v-6.30003M39.2001,30.8004h10.49987v6.30003h-10.49987v-6.30003M39.2001,41.30028h16.7999v6.30003h-16.7999z" id="icon" fill="#ffffff"/></g></svg>